<svg xmlns="http://www.w3.org/2000/svg" version="1.1" xmlns:xlink="http://www.w3.org/1999/xlink" width="512" height="512" x="0" y="0" viewBox="0 0 64 64" style="enable-background:new 0 0 512 512" xml:space="preserve"><g><path d="M52 7H12a6 6 0 0 0-6 6v38a6 6 0 0 0 6 6h40a6 6 0 0 0 6-6V13a6 6 0 0 0-6-6zM16.15 27.77a2 2 0 0 1 .44-2.18l6-6a2 2 0 0 1 2.82 2.82L22.83 25H45a2 2 0 0 1 0 4H18a2 2 0 0 1-1.85-1.23zm32.26 11.64-6 6a2 2 0 1 1-2.82-2.82L42.17 40H20a2 2 0 0 1 0-4h27a2 2 0 0 1 1.85 1.23 2 2 0 0 1-.44 2.18z" fill="#4d4d4d" opacity="1" data-original="#000000"></path></g></svg>