<svg xmlns="http://www.w3.org/2000/svg" version="1.1" xmlns:xlink="http://www.w3.org/1999/xlink" width="512" height="512" x="0" y="0" viewBox="0 0 512 512" style="enable-background:new 0 0 512 512" xml:space="preserve" class=""><g><path d="M271 251.66v114.275l98.965-57.137V194.523zM157.035 168.542 256 225.68l98.965-57.138L256 111.404zM241 251.66l-98.965-57.137v114.275L241 365.935z" fill="#4d4d4d" opacity="1" data-original="#000000" class=""></path><path d="M451.726 85.954c-10.786 0-20.667 3.927-28.308 10.416L256.501 0 88.982 96.717c-7.694-6.695-17.732-10.763-28.708-10.763-24.152 0-43.8 19.648-43.8 43.8 0 19.247 12.485 35.623 29.778 41.484V364.16l165.822 95.737a43.854 43.854 0 0 0-.799 8.302c0 24.151 19.648 43.799 43.8 43.799 24.151 0 43.799-19.648 43.799-43.799 0-2.316-.184-4.59-.532-6.81l168.407-97.23v-193.26c16.774-6.144 28.777-22.269 28.777-41.145 0-24.151-19.649-43.8-43.8-43.8zm-15.023 260.86L283.74 435.127c-7.689-6.673-17.71-10.726-28.666-10.726-10.412 0-19.982 3.658-27.507 9.748L76.299 346.814v-176.31c16.245-6.411 27.774-22.254 27.774-40.75 0-2.297-.18-4.552-.522-6.754l152.95-88.306 152.041 87.781a43.883 43.883 0 0 0-.616 7.279c0 18.876 12.003 35.001 28.777 41.145z" fill="#4d4d4d" opacity="1" data-original="#000000" class=""></path></g></svg>